<svg width="993" height="300" viewBox="0 0 993 300" fill="none" xmlns="http://www.w3.org/2000/svg">
<rect x="0.5" width="992" height="300" rx="25" fill="url(#paint0_linear_14_983)"/>
<mask id="mask0_14_983" style="mask-type:alpha" maskUnits="userSpaceOnUse" x="0" y="0" width="993" height="300">
<rect x="0.5" width="992" height="300" rx="25" fill="url(#paint1_linear_14_983)"/>
</mask>
<g mask="url(#mask0_14_983)">
<circle cx="860.5" cy="262" r="169" fill="white" fill-opacity="0.2"/>
</g>
<mask id="mask1_14_983" style="mask-type:alpha" maskUnits="userSpaceOnUse" x="0" y="0" width="993" height="300">
<rect x="0.5" width="992" height="300" rx="25" fill="url(#paint2_linear_14_983)"/>
</mask>
<g mask="url(#mask1_14_983)">
<circle cx="0.5" r="169" fill="white" fill-opacity="0.2"/>
</g>
<path d="M88.492 117.2V117.104C88.492 114.736 88.06 112.544 87.196 110.528C86.332 108.48 85.1 106.704 83.5 105.2C81.932 103.696 80.044 102.528 77.836 101.696C75.66 100.832 73.26 100.4 70.636 100.4H57.532V134H70.636C73.26 134 75.66 133.568 77.836 132.704C80.044 131.84 81.932 130.656 83.5 129.152C85.1 127.648 86.332 125.872 87.196 123.824C88.06 121.776 88.492 119.568 88.492 117.2ZM80.764 117.296C80.764 118.8 80.508 120.16 79.996 121.376C79.516 122.592 78.828 123.648 77.932 124.544C77.068 125.44 76.012 126.128 74.764 126.608C73.516 127.088 72.14 127.328 70.636 127.328H64.924V107.072H70.636C72.14 107.072 73.516 107.328 74.764 107.84C76.012 108.32 77.068 109.008 77.932 109.904C78.828 110.8 79.516 111.872 79.996 113.12C80.508 114.368 80.764 115.728 80.764 117.2V117.296ZM102.135 105.44V98.96H94.4549V105.44H102.135ZM101.943 134V108.272H94.6469V134H101.943ZM127.659 126.176V126.08C127.659 124.896 127.419 123.888 126.939 123.056C126.459 122.224 125.851 121.52 125.115 120.944C124.379 120.368 123.547 119.888 122.619 119.504C121.691 119.088 120.779 118.736 119.883 118.448C119.179 118.224 118.507 118 117.867 117.776C117.259 117.552 116.715 117.328 116.235 117.104C115.755 116.848 115.371 116.592 115.083 116.336C114.795 116.048 114.651 115.728 114.651 115.376V115.28C114.651 114.768 114.875 114.352 115.323 114.032C115.771 113.68 116.443 113.504 117.339 113.504C118.267 113.504 119.339 113.728 120.555 114.176C121.771 114.592 123.019 115.168 124.299 115.904L127.083 110.864C125.675 109.936 124.123 109.216 122.427 108.704C120.763 108.16 119.115 107.888 117.483 107.888C116.171 107.888 114.939 108.064 113.787 108.416C112.667 108.768 111.675 109.296 110.811 110C109.979 110.704 109.307 111.568 108.795 112.592C108.315 113.584 108.075 114.736 108.075 116.048V116.144C108.075 117.392 108.299 118.448 108.747 119.312C109.227 120.176 109.835 120.912 110.571 121.52C111.307 122.096 112.123 122.576 113.019 122.96C113.947 123.312 114.859 123.616 115.755 123.872C116.459 124.096 117.131 124.304 117.771 124.496C118.411 124.688 118.971 124.896 119.451 125.12C119.963 125.312 120.363 125.552 120.651 125.84C120.939 126.128 121.083 126.464 121.083 126.848V126.944C121.083 127.52 120.827 127.984 120.315 128.336C119.835 128.688 119.067 128.864 118.011 128.864C116.795 128.864 115.483 128.608 114.075 128.096C112.699 127.584 111.307 126.816 109.899 125.792L106.779 130.592C108.507 131.936 110.315 132.928 112.203 133.568C114.123 134.176 115.995 134.48 117.819 134.48C119.195 134.48 120.475 134.32 121.659 134C122.875 133.648 123.931 133.136 124.827 132.464C125.723 131.792 126.411 130.944 126.891 129.92C127.403 128.864 127.659 127.616 127.659 126.176ZM155.545 129.872L151.273 125.552C150.377 126.384 149.465 127.056 148.537 127.568C147.641 128.048 146.585 128.288 145.369 128.288C144.377 128.288 143.481 128.112 142.681 127.76C141.881 127.376 141.193 126.864 140.617 126.224C140.041 125.584 139.593 124.832 139.273 123.968C138.985 123.104 138.841 122.176 138.841 121.184V121.088C138.841 120.128 138.985 119.232 139.273 118.4C139.593 117.536 140.025 116.784 140.569 116.144C141.145 115.504 141.801 115.008 142.537 114.656C143.305 114.272 144.153 114.08 145.081 114.08C146.393 114.08 147.481 114.336 148.345 114.848C149.241 115.36 150.105 116.048 150.937 116.912L155.401 112.112C154.185 110.768 152.777 109.712 151.177 108.944C149.577 108.176 147.561 107.792 145.129 107.792C143.145 107.792 141.321 108.144 139.657 108.848C138.025 109.552 136.617 110.512 135.433 111.728C134.249 112.944 133.321 114.368 132.649 116C131.977 117.632 131.641 119.36 131.641 121.184V121.28C131.641 123.104 131.977 124.832 132.649 126.464C133.321 128.064 134.249 129.472 135.433 130.688C136.617 131.872 138.025 132.816 139.657 133.52C141.321 134.224 143.113 134.576 145.033 134.576C147.593 134.576 149.673 134.144 151.273 133.28C152.873 132.384 154.297 131.248 155.545 129.872ZM186.903 121.184V121.088C186.903 119.232 186.551 117.504 185.847 115.904C185.143 114.272 184.167 112.864 182.919 111.68C181.703 110.464 180.247 109.52 178.551 108.848C176.855 108.144 175.015 107.792 173.031 107.792C171.015 107.792 169.159 108.144 167.463 108.848C165.767 109.552 164.295 110.512 163.047 111.728C161.799 112.944 160.823 114.368 160.119 116C159.415 117.6 159.063 119.328 159.063 121.184V121.28C159.063 123.136 159.415 124.88 160.119 126.512C160.823 128.112 161.783 129.52 162.999 130.736C164.247 131.92 165.719 132.864 167.415 133.568C169.111 134.24 170.951 134.576 172.935 134.576C174.951 134.576 176.807 134.224 178.503 133.52C180.199 132.816 181.671 131.856 182.919 130.64C184.167 129.424 185.143 128.016 185.847 126.416C186.551 124.784 186.903 123.04 186.903 121.184ZM179.703 121.28C179.703 122.24 179.543 123.152 179.223 124.016C178.935 124.848 178.503 125.584 177.927 126.224C177.351 126.864 176.647 127.376 175.815 127.76C175.015 128.112 174.087 128.288 173.031 128.288C172.007 128.288 171.079 128.096 170.247 127.712C169.447 127.328 168.743 126.816 168.135 126.176C167.527 125.504 167.063 124.752 166.743 123.92C166.423 123.056 166.263 122.144 166.263 121.184V121.088C166.263 120.128 166.407 119.232 166.695 118.4C167.015 117.536 167.463 116.784 168.039 116.144C168.615 115.504 169.303 115.008 170.103 114.656C170.935 114.272 171.879 114.08 172.935 114.08C173.927 114.08 174.839 114.272 175.671 114.656C176.503 115.04 177.223 115.568 177.831 116.24C178.439 116.88 178.903 117.632 179.223 118.496C179.543 119.328 179.703 120.224 179.703 121.184V121.28ZM216.762 108.272H209.178L203.37 125.504L197.61 108.272H189.882L200.01 134.192H206.634L216.762 108.272ZM244.967 121.856V121.76C244.967 119.936 244.711 118.192 244.199 116.528C243.719 114.832 242.951 113.344 241.895 112.064C240.871 110.752 239.575 109.712 238.007 108.944C236.439 108.176 234.583 107.792 232.439 107.792C230.551 107.792 228.823 108.144 227.255 108.848C225.719 109.552 224.391 110.512 223.271 111.728C222.151 112.944 221.271 114.368 220.631 116C220.023 117.632 219.719 119.36 219.719 121.184V121.28C219.719 123.264 220.055 125.072 220.727 126.704C221.399 128.304 222.327 129.696 223.511 130.88C224.727 132.064 226.151 132.976 227.783 133.616C229.447 134.256 231.239 134.576 233.159 134.576C235.495 134.576 237.527 134.16 239.255 133.328C240.983 132.464 242.455 131.28 243.671 129.776L239.495 126.08C238.471 127.008 237.479 127.68 236.519 128.096C235.559 128.512 234.471 128.72 233.255 128.72C231.623 128.72 230.247 128.304 229.127 127.472C228.039 126.608 227.319 125.344 226.967 123.68H244.871C244.903 123.328 244.919 123.024 244.919 122.768C244.951 122.512 244.967 122.208 244.967 121.856ZM237.863 119.12H226.871C227.159 117.456 227.767 116.128 228.695 115.136C229.655 114.144 230.903 113.648 232.439 113.648C233.975 113.648 235.207 114.16 236.135 115.184C237.063 116.176 237.639 117.488 237.863 119.12ZM265.909 115.424V107.792C263.733 107.696 262.005 108.176 260.725 109.232C259.445 110.288 258.437 111.696 257.701 113.456V108.272H250.405V134H257.701V124.496C257.701 121.392 258.389 119.104 259.765 117.632C261.173 116.16 263.093 115.424 265.525 115.424H265.909ZM268.451 138.752L269.075 141.776C271.923 141.744 274.115 141.024 275.651 139.616C277.187 138.24 277.955 135.968 277.955 132.8V126.32H270.179V134H273.155C273.411 136.816 271.843 138.4 268.451 138.752ZM321.248 129.872L316.976 125.552C316.08 126.384 315.168 127.056 314.24 127.568C313.344 128.048 312.288 128.288 311.072 128.288C310.08 128.288 309.184 128.112 308.384 127.76C307.584 127.376 306.896 126.864 306.32 126.224C305.744 125.584 305.296 124.832 304.976 123.968C304.688 123.104 304.544 122.176 304.544 121.184V121.088C304.544 120.128 304.688 119.232 304.976 118.4C305.296 117.536 305.728 116.784 306.272 116.144C306.848 115.504 307.504 115.008 308.24 114.656C309.008 114.272 309.856 114.08 310.784 114.08C312.096 114.08 313.184 114.336 314.048 114.848C314.944 115.36 315.808 116.048 316.64 116.912L321.104 112.112C319.888 110.768 318.48 109.712 316.88 108.944C315.28 108.176 313.264 107.792 310.832 107.792C308.848 107.792 307.024 108.144 305.36 108.848C303.728 109.552 302.32 110.512 301.136 111.728C299.952 112.944 299.024 114.368 298.352 116C297.68 117.632 297.344 119.36 297.344 121.184V121.28C297.344 123.104 297.68 124.832 298.352 126.464C299.024 128.064 299.952 129.472 301.136 130.688C302.32 131.872 303.728 132.816 305.36 133.52C307.024 134.224 308.816 134.576 310.736 134.576C313.296 134.576 315.376 134.144 316.976 133.28C318.576 132.384 320 131.248 321.248 129.872ZM352.606 121.184V121.088C352.606 119.232 352.254 117.504 351.55 115.904C350.846 114.272 349.87 112.864 348.622 111.68C347.406 110.464 345.95 109.52 344.254 108.848C342.558 108.144 340.718 107.792 338.734 107.792C336.718 107.792 334.862 108.144 333.166 108.848C331.47 109.552 329.998 110.512 328.75 111.728C327.502 112.944 326.526 114.368 325.822 116C325.118 117.6 324.766 119.328 324.766 121.184V121.28C324.766 123.136 325.118 124.88 325.822 126.512C326.526 128.112 327.486 129.52 328.702 130.736C329.95 131.92 331.422 132.864 333.118 133.568C334.814 134.24 336.654 134.576 338.638 134.576C340.654 134.576 342.51 134.224 344.206 133.52C345.902 132.816 347.374 131.856 348.622 130.64C349.87 129.424 350.846 128.016 351.55 126.416C352.254 124.784 352.606 123.04 352.606 121.184ZM345.406 121.28C345.406 122.24 345.246 123.152 344.926 124.016C344.638 124.848 344.206 125.584 343.63 126.224C343.054 126.864 342.35 127.376 341.518 127.76C340.718 128.112 339.79 128.288 338.734 128.288C337.71 128.288 336.782 128.096 335.95 127.712C335.15 127.328 334.446 126.816 333.838 126.176C333.23 125.504 332.766 124.752 332.446 123.92C332.126 123.056 331.966 122.144 331.966 121.184V121.088C331.966 120.128 332.11 119.232 332.398 118.4C332.718 117.536 333.166 116.784 333.742 116.144C334.318 115.504 335.006 115.008 335.806 114.656C336.638 114.272 337.582 114.08 338.638 114.08C339.63 114.08 340.542 114.272 341.374 114.656C342.206 115.04 342.926 115.568 343.534 116.24C344.142 116.88 344.606 117.632 344.926 118.496C345.246 119.328 345.406 120.224 345.406 121.184V121.28ZM365.521 134V98.96H358.225V134H365.521ZM380.005 134V98.96H372.709V134H380.005ZM410.858 121.856V121.76C410.858 119.936 410.602 118.192 410.09 116.528C409.61 114.832 408.842 113.344 407.786 112.064C406.762 110.752 405.466 109.712 403.898 108.944C402.33 108.176 400.474 107.792 398.33 107.792C396.442 107.792 394.714 108.144 393.146 108.848C391.61 109.552 390.282 110.512 389.162 111.728C388.042 112.944 387.162 114.368 386.522 116C385.914 117.632 385.61 119.36 385.61 121.184V121.28C385.61 123.264 385.946 125.072 386.618 126.704C387.29 128.304 388.218 129.696 389.402 130.88C390.618 132.064 392.042 132.976 393.674 133.616C395.338 134.256 397.13 134.576 399.05 134.576C401.386 134.576 403.418 134.16 405.146 133.328C406.874 132.464 408.346 131.28 409.562 129.776L405.386 126.08C404.362 127.008 403.37 127.68 402.41 128.096C401.45 128.512 400.362 128.72 399.146 128.72C397.514 128.72 396.138 128.304 395.018 127.472C393.93 126.608 393.21 125.344 392.858 123.68H410.762C410.794 123.328 410.81 123.024 410.81 122.768C410.842 122.512 410.858 122.208 410.858 121.856ZM403.754 119.12H392.762C393.05 117.456 393.658 116.128 394.586 115.136C395.546 114.144 396.794 113.648 398.33 113.648C399.866 113.648 401.098 114.16 402.026 115.184C402.954 116.176 403.53 117.488 403.754 119.12ZM438.951 129.872L434.679 125.552C433.783 126.384 432.871 127.056 431.943 127.568C431.047 128.048 429.991 128.288 428.775 128.288C427.783 128.288 426.887 128.112 426.087 127.76C425.287 127.376 424.599 126.864 424.023 126.224C423.447 125.584 422.999 124.832 422.679 123.968C422.391 123.104 422.247 122.176 422.247 121.184V121.088C422.247 120.128 422.391 119.232 422.679 118.4C422.999 117.536 423.431 116.784 423.975 116.144C424.551 115.504 425.207 115.008 425.943 114.656C426.711 114.272 427.559 114.08 428.487 114.08C429.799 114.08 430.887 114.336 431.751 114.848C432.647 115.36 433.511 116.048 434.343 116.912L438.807 112.112C437.591 110.768 436.183 109.712 434.583 108.944C432.983 108.176 430.967 107.792 428.535 107.792C426.551 107.792 424.727 108.144 423.063 108.848C421.431 109.552 420.023 110.512 418.839 111.728C417.655 112.944 416.727 114.368 416.055 116C415.383 117.632 415.047 119.36 415.047 121.184V121.28C415.047 123.104 415.383 124.832 416.055 126.464C416.727 128.064 417.655 129.472 418.839 130.688C420.023 131.872 421.431 132.816 423.063 133.52C424.727 134.224 426.519 134.576 428.439 134.576C430.999 134.576 433.079 134.144 434.679 133.28C436.279 132.384 437.703 131.248 438.951 129.872ZM458.165 132.944V127.088C457.045 127.696 455.845 128 454.565 128C452.997 128 452.213 127.168 452.213 125.504V114.512H458.261V108.272H452.213V101.696H444.917V108.272H441.845V114.512H444.917V126.704C444.917 128.208 445.093 129.456 445.445 130.448C445.829 131.408 446.341 132.192 446.981 132.8C447.653 133.408 448.437 133.824 449.333 134.048C450.261 134.304 451.285 134.432 452.405 134.432C453.621 134.432 454.693 134.288 455.621 134C456.549 133.744 457.397 133.392 458.165 132.944ZM461.623 138.752L462.247 141.776C465.095 141.744 467.287 141.024 468.823 139.616C470.359 138.24 471.127 135.968 471.127 132.8V126.32H463.351V134H466.327C466.583 136.816 465.015 138.4 461.623 138.752ZM513.892 134V119.072C513.892 115.584 512.98 112.864 511.156 110.912C509.332 108.96 506.42 107.984 502.42 107.984C500.244 107.984 498.388 108.176 496.852 108.56C495.316 108.944 493.844 109.44 492.436 110.048L494.26 115.616C495.444 115.168 496.564 114.832 497.62 114.608C498.708 114.352 499.956 114.224 501.364 114.224C503.188 114.224 504.564 114.624 505.492 115.424C506.42 116.224 506.884 117.392 506.884 118.928V119.36C505.956 119.04 504.996 118.784 504.004 118.592C503.044 118.4 501.908 118.304 500.596 118.304C499.06 118.304 497.652 118.48 496.372 118.832C495.124 119.152 494.036 119.648 493.108 120.32C492.212 120.992 491.508 121.84 490.996 122.864C490.484 123.888 490.228 125.104 490.228 126.512V126.608C490.228 127.888 490.452 129.024 490.9 130.016C491.38 130.976 492.02 131.792 492.82 132.464C493.62 133.136 494.548 133.648 495.604 134C496.692 134.32 497.844 134.48 499.06 134.48C500.852 134.48 502.372 134.192 503.62 133.616C504.868 133.008 505.94 132.208 506.836 131.216V134H513.892ZM506.98 124.928C506.98 126.272 506.452 127.36 505.396 128.192C504.372 129.024 502.996 129.44 501.268 129.44C500.084 129.44 499.124 129.168 498.388 128.624C497.652 128.08 497.284 127.312 497.284 126.32V126.224C497.284 125.072 497.732 124.192 498.628 123.584C499.524 122.976 500.756 122.672 502.324 122.672C503.22 122.672 504.052 122.768 504.82 122.96C505.62 123.12 506.34 123.344 506.98 123.632V124.928ZM543.738 134V117.344C543.738 114.368 542.97 112.032 541.434 110.336C539.93 108.64 537.786 107.792 535.002 107.792C534.074 107.792 533.242 107.904 532.506 108.128C531.77 108.352 531.098 108.656 530.49 109.04C529.882 109.424 529.322 109.872 528.81 110.384C528.33 110.864 527.882 111.376 527.466 111.92V108.272H520.17V134H527.466V119.648C527.466 117.92 527.866 116.624 528.666 115.76C529.498 114.864 530.618 114.416 532.026 114.416C533.434 114.416 534.522 114.864 535.29 115.76C536.058 116.624 536.442 117.92 536.442 119.648V134H543.738ZM575.949 134V98.96H568.653V111.632C567.789 110.608 566.717 109.712 565.437 108.944C564.189 108.176 562.589 107.792 560.637 107.792C559.101 107.792 557.629 108.08 556.221 108.656C554.813 109.232 553.565 110.096 552.477 111.248C551.421 112.368 550.557 113.76 549.885 115.424C549.245 117.056 548.925 118.944 548.925 121.088V121.184C548.925 123.328 549.245 125.232 549.885 126.896C550.557 128.528 551.437 129.92 552.525 131.072C553.613 132.192 554.861 133.04 556.269 133.616C557.677 134.192 559.133 134.48 560.637 134.48C562.557 134.48 564.141 134.096 565.389 133.328C566.669 132.528 567.757 131.52 568.653 130.304V134H575.949ZM568.749 121.184C568.749 122.24 568.573 123.216 568.221 124.112C567.901 124.976 567.453 125.728 566.877 126.368C566.333 126.976 565.677 127.456 564.909 127.808C564.173 128.128 563.373 128.288 562.509 128.288C561.645 128.288 560.829 128.128 560.061 127.808C559.325 127.456 558.669 126.976 558.093 126.368C557.517 125.728 557.053 124.976 556.701 124.112C556.381 123.216 556.221 122.24 556.221 121.184V121.088C556.221 120 556.381 119.024 556.701 118.16C557.053 117.296 557.517 116.56 558.093 115.952C558.669 115.312 559.325 114.832 560.061 114.512C560.829 114.16 561.645 113.984 562.509 113.984C563.373 113.984 564.173 114.16 564.909 114.512C565.677 114.832 566.333 115.312 566.877 115.952C567.453 116.56 567.901 117.312 568.221 118.208C568.573 119.072 568.749 120.032 568.749 121.088V121.184ZM615.722 126.176V126.08C615.722 124.896 615.482 123.888 615.002 123.056C614.522 122.224 613.914 121.52 613.178 120.944C612.442 120.368 611.61 119.888 610.682 119.504C609.754 119.088 608.842 118.736 607.946 118.448C607.242 118.224 606.57 118 605.93 117.776C605.322 117.552 604.778 117.328 604.298 117.104C603.818 116.848 603.434 116.592 603.146 116.336C602.858 116.048 602.714 115.728 602.714 115.376V115.28C602.714 114.768 602.938 114.352 603.386 114.032C603.834 113.68 604.506 113.504 605.402 113.504C606.33 113.504 607.402 113.728 608.618 114.176C609.834 114.592 611.082 115.168 612.362 115.904L615.146 110.864C613.738 109.936 612.186 109.216 610.49 108.704C608.826 108.16 607.178 107.888 605.546 107.888C604.234 107.888 603.002 108.064 601.85 108.416C600.73 108.768 599.738 109.296 598.874 110C598.042 110.704 597.37 111.568 596.858 112.592C596.378 113.584 596.138 114.736 596.138 116.048V116.144C596.138 117.392 596.362 118.448 596.81 119.312C597.29 120.176 597.898 120.912 598.634 121.52C599.37 122.096 600.186 122.576 601.082 122.96C602.01 123.312 602.922 123.616 603.818 123.872C604.522 124.096 605.194 124.304 605.834 124.496C606.474 124.688 607.034 124.896 607.514 125.12C608.026 125.312 608.426 125.552 608.714 125.84C609.002 126.128 609.146 126.464 609.146 126.848V126.944C609.146 127.52 608.89 127.984 608.378 128.336C607.898 128.688 607.13 128.864 606.074 128.864C604.858 128.864 603.546 128.608 602.138 128.096C600.762 127.584 599.37 126.816 597.962 125.792L594.842 130.592C596.57 131.936 598.378 132.928 600.266 133.568C602.186 134.176 604.058 134.48 605.882 134.48C607.258 134.48 608.538 134.32 609.722 134C610.938 133.648 611.994 133.136 612.89 132.464C613.786 131.792 614.474 130.944 614.954 129.92C615.466 128.864 615.722 127.616 615.722 126.176ZM644.952 121.856V121.76C644.952 119.936 644.696 118.192 644.184 116.528C643.704 114.832 642.936 113.344 641.88 112.064C640.856 110.752 639.56 109.712 637.992 108.944C636.424 108.176 634.568 107.792 632.424 107.792C630.536 107.792 628.808 108.144 627.24 108.848C625.704 109.552 624.376 110.512 623.256 111.728C622.136 112.944 621.256 114.368 620.616 116C620.008 117.632 619.704 119.36 619.704 121.184V121.28C619.704 123.264 620.04 125.072 620.712 126.704C621.384 128.304 622.312 129.696 623.496 130.88C624.712 132.064 626.136 132.976 627.768 133.616C629.432 134.256 631.224 134.576 633.144 134.576C635.48 134.576 637.512 134.16 639.24 133.328C640.968 132.464 642.44 131.28 643.656 129.776L639.48 126.08C638.456 127.008 637.464 127.68 636.504 128.096C635.544 128.512 634.456 128.72 633.24 128.72C631.608 128.72 630.232 128.304 629.112 127.472C628.024 126.608 627.304 125.344 626.952 123.68H644.856C644.888 123.328 644.904 123.024 644.904 122.768C644.936 122.512 644.952 122.208 644.952 121.856ZM637.848 119.12H626.856C627.144 117.456 627.752 116.128 628.68 115.136C629.64 114.144 630.888 113.648 632.424 113.648C633.96 113.648 635.192 114.16 636.12 115.184C637.048 116.176 637.624 117.488 637.848 119.12ZM658.021 134V98.96H650.725V134H658.021ZM672.505 134V98.96H665.209V134H672.505ZM80.764 172.856V172.76C80.764 170.936 80.508 169.192 79.996 167.528C79.516 165.832 78.748 164.344 77.692 163.064C76.668 161.752 75.372 160.712 73.804 159.944C72.236 159.176 70.38 158.792 68.236 158.792C66.348 158.792 64.62 159.144 63.052 159.848C61.516 160.552 60.188 161.512 59.068 162.728C57.948 163.944 57.068 165.368 56.428 167C55.82 168.632 55.516 170.36 55.516 172.184V172.28C55.516 174.264 55.852 176.072 56.524 177.704C57.196 179.304 58.124 180.696 59.308 181.88C60.524 183.064 61.948 183.976 63.58 184.616C65.244 185.256 67.036 185.576 68.956 185.576C71.292 185.576 73.324 185.16 75.052 184.328C76.78 183.464 78.252 182.28 79.468 180.776L75.292 177.08C74.268 178.008 73.276 178.68 72.316 179.096C71.356 179.512 70.268 179.72 69.052 179.72C67.42 179.72 66.044 179.304 64.924 178.472C63.836 177.608 63.116 176.344 62.764 174.68H80.668C80.7 174.328 80.716 174.024 80.716 173.768C80.748 173.512 80.764 173.208 80.764 172.856ZM73.66 170.12H62.668C62.956 168.456 63.564 167.128 64.492 166.136C65.452 165.144 66.7 164.648 68.236 164.648C69.772 164.648 71.004 165.16 71.932 166.184C72.86 167.176 73.436 168.488 73.66 170.12ZM109.866 185L100.794 171.8L109.482 159.272H101.85L97.0015 166.76L92.2015 159.272H84.3775L93.0655 171.944L84.0415 185H91.6735L96.8575 176.984L102.042 185H109.866ZM128.681 183.944V178.088C127.561 178.696 126.361 179 125.081 179C123.513 179 122.729 178.168 122.729 176.504V165.512H128.777V159.272H122.729V152.696H115.433V159.272H112.361V165.512H115.433V177.704C115.433 179.208 115.609 180.456 115.961 181.448C116.345 182.408 116.857 183.192 117.497 183.8C118.169 184.408 118.953 184.824 119.849 185.048C120.777 185.304 121.801 185.432 122.921 185.432C124.137 185.432 125.209 185.288 126.137 185C127.065 184.744 127.913 184.392 128.681 183.944ZM149.659 166.424V158.792C147.483 158.696 145.755 159.176 144.475 160.232C143.195 161.288 142.187 162.696 141.451 164.456V159.272H134.155V185H141.451V175.496C141.451 172.392 142.139 170.104 143.515 168.632C144.923 167.16 146.843 166.424 149.275 166.424H149.659ZM176.345 185V170.072C176.345 166.584 175.433 163.864 173.609 161.912C171.785 159.96 168.873 158.984 164.873 158.984C162.697 158.984 160.841 159.176 159.305 159.56C157.769 159.944 156.297 160.44 154.889 161.048L156.713 166.616C157.897 166.168 159.017 165.832 160.073 165.608C161.161 165.352 162.409 165.224 163.817 165.224C165.641 165.224 167.017 165.624 167.945 166.424C168.873 167.224 169.337 168.392 169.337 169.928V170.36C168.409 170.04 167.449 169.784 166.457 169.592C165.497 169.4 164.361 169.304 163.049 169.304C161.513 169.304 160.105 169.48 158.825 169.832C157.577 170.152 156.489 170.648 155.561 171.32C154.665 171.992 153.961 172.84 153.449 173.864C152.937 174.888 152.681 176.104 152.681 177.512V177.608C152.681 178.888 152.905 180.024 153.353 181.016C153.833 181.976 154.473 182.792 155.273 183.464C156.073 184.136 157.001 184.648 158.057 185C159.145 185.32 160.297 185.48 161.513 185.48C163.305 185.48 164.825 185.192 166.073 184.616C167.321 184.008 168.393 183.208 169.289 182.216V185H176.345ZM169.433 175.928C169.433 177.272 168.905 178.36 167.849 179.192C166.825 180.024 165.449 180.44 163.721 180.44C162.537 180.44 161.577 180.168 160.841 179.624C160.105 179.08 159.737 178.312 159.737 177.32V177.224C159.737 176.072 160.185 175.192 161.081 174.584C161.977 173.976 163.209 173.672 164.777 173.672C165.673 173.672 166.505 173.768 167.273 173.96C168.073 174.12 168.793 174.344 169.433 174.632V175.928ZM209.215 172.184V172.088C209.215 170.232 208.863 168.504 208.159 166.904C207.455 165.272 206.479 163.864 205.231 162.68C204.015 161.464 202.559 160.52 200.863 159.848C199.167 159.144 197.327 158.792 195.343 158.792C193.327 158.792 191.471 159.144 189.775 159.848C188.079 160.552 186.607 161.512 185.359 162.728C184.111 163.944 183.135 165.368 182.431 167C181.727 168.6 181.375 170.328 181.375 172.184V172.28C181.375 174.136 181.727 175.88 182.431 177.512C183.135 179.112 184.095 180.52 185.311 181.736C186.559 182.92 188.031 183.864 189.727 184.568C191.423 185.24 193.263 185.576 195.247 185.576C197.263 185.576 199.119 185.224 200.815 184.52C202.511 183.816 203.983 182.856 205.231 181.64C206.479 180.424 207.455 179.016 208.159 177.416C208.863 175.784 209.215 174.04 209.215 172.184ZM202.015 172.28C202.015 173.24 201.855 174.152 201.535 175.016C201.247 175.848 200.815 176.584 200.239 177.224C199.663 177.864 198.959 178.376 198.127 178.76C197.327 179.112 196.399 179.288 195.343 179.288C194.319 179.288 193.391 179.096 192.559 178.712C191.759 178.328 191.055 177.816 190.447 177.176C189.839 176.504 189.375 175.752 189.055 174.92C188.735 174.056 188.575 173.144 188.575 172.184V172.088C188.575 171.128 188.719 170.232 189.007 169.4C189.327 168.536 189.775 167.784 190.351 167.144C190.927 166.504 191.615 166.008 192.415 165.656C193.247 165.272 194.191 165.08 195.247 165.08C196.239 165.08 197.151 165.272 197.983 165.656C198.815 166.04 199.535 166.568 200.143 167.24C200.751 167.88 201.215 168.632 201.535 169.496C201.855 170.328 202.015 171.224 202.015 172.184V172.28ZM230.002 166.424V158.792C227.826 158.696 226.098 159.176 224.818 160.232C223.538 161.288 222.53 162.696 221.794 164.456V159.272H214.498V185H221.794V175.496C221.794 172.392 222.482 170.104 223.858 168.632C225.266 167.16 227.186 166.424 229.618 166.424H230.002ZM260.433 185V149.96H253.137V162.632C252.273 161.608 251.201 160.712 249.921 159.944C248.673 159.176 247.073 158.792 245.121 158.792C243.585 158.792 242.113 159.08 240.705 159.656C239.297 160.232 238.049 161.096 236.961 162.248C235.905 163.368 235.041 164.76 234.369 166.424C233.729 168.056 233.409 169.944 233.409 172.088V172.184C233.409 174.328 233.729 176.232 234.369 177.896C235.041 179.528 235.921 180.92 237.009 182.072C238.097 183.192 239.345 184.04 240.753 184.616C242.161 185.192 243.617 185.48 245.121 185.48C247.041 185.48 248.625 185.096 249.873 184.328C251.153 183.528 252.241 182.52 253.137 181.304V185H260.433ZM253.233 172.184C253.233 173.24 253.057 174.216 252.705 175.112C252.385 175.976 251.937 176.728 251.361 177.368C250.817 177.976 250.161 178.456 249.393 178.808C248.657 179.128 247.857 179.288 246.993 179.288C246.129 179.288 245.313 179.128 244.545 178.808C243.809 178.456 243.153 177.976 242.577 177.368C242.001 176.728 241.537 175.976 241.185 175.112C240.865 174.216 240.705 173.24 240.705 172.184V172.088C240.705 171 240.865 170.024 241.185 169.16C241.537 168.296 242.001 167.56 242.577 166.952C243.153 166.312 243.809 165.832 244.545 165.512C245.313 165.16 246.129 164.984 246.993 164.984C247.857 164.984 248.657 165.16 249.393 165.512C250.161 165.832 250.817 166.312 251.361 166.952C251.937 167.56 252.385 168.312 252.705 169.208C253.057 170.072 253.233 171.032 253.233 172.088V172.184ZM274.776 156.44V149.96H267.096V156.44H274.776ZM274.584 185V159.272H267.288V185H274.584ZM305.004 185V168.344C305.004 165.368 304.236 163.032 302.7 161.336C301.196 159.64 299.052 158.792 296.268 158.792C295.34 158.792 294.508 158.904 293.772 159.128C293.036 159.352 292.364 159.656 291.756 160.04C291.148 160.424 290.588 160.872 290.076 161.384C289.596 161.864 289.148 162.376 288.732 162.92V159.272H281.436V185H288.732V170.648C288.732 168.92 289.132 167.624 289.932 166.76C290.764 165.864 291.884 165.416 293.292 165.416C294.7 165.416 295.788 165.864 296.556 166.76C297.324 167.624 297.708 168.92 297.708 170.648V185H305.004ZM333.47 185V170.072C333.47 166.584 332.558 163.864 330.734 161.912C328.91 159.96 325.998 158.984 321.998 158.984C319.822 158.984 317.966 159.176 316.43 159.56C314.894 159.944 313.422 160.44 312.014 161.048L313.838 166.616C315.022 166.168 316.142 165.832 317.198 165.608C318.286 165.352 319.534 165.224 320.942 165.224C322.766 165.224 324.142 165.624 325.07 166.424C325.998 167.224 326.462 168.392 326.462 169.928V170.36C325.534 170.04 324.574 169.784 323.582 169.592C322.622 169.4 321.486 169.304 320.174 169.304C318.638 169.304 317.23 169.48 315.95 169.832C314.702 170.152 313.614 170.648 312.686 171.32C311.79 171.992 311.086 172.84 310.574 173.864C310.062 174.888 309.806 176.104 309.806 177.512V177.608C309.806 178.888 310.03 180.024 310.478 181.016C310.958 181.976 311.598 182.792 312.398 183.464C313.198 184.136 314.126 184.648 315.182 185C316.27 185.32 317.422 185.48 318.638 185.48C320.43 185.48 321.95 185.192 323.198 184.616C324.446 184.008 325.518 183.208 326.414 182.216V185H333.47ZM326.558 175.928C326.558 177.272 326.03 178.36 324.974 179.192C323.95 180.024 322.574 180.44 320.846 180.44C319.662 180.44 318.702 180.168 317.966 179.624C317.23 179.08 316.862 178.312 316.862 177.32V177.224C316.862 176.072 317.31 175.192 318.206 174.584C319.102 173.976 320.334 173.672 321.902 173.672C322.798 173.672 323.63 173.768 324.398 173.96C325.198 174.12 325.918 174.344 326.558 174.632V175.928ZM355.252 166.424V158.792C353.076 158.696 351.348 159.176 350.068 160.232C348.788 161.288 347.78 162.696 347.044 164.456V159.272H339.748V185H347.044V175.496C347.044 172.392 347.732 170.104 349.108 168.632C350.516 167.16 352.436 166.424 354.868 166.424H355.252ZM384.291 159.272H376.707L371.091 176.792L365.235 159.272H357.507L367.587 185.096C367.267 185.736 366.915 186.168 366.531 186.392C366.179 186.648 365.683 186.776 365.043 186.776C364.563 186.776 364.035 186.68 363.459 186.488C362.915 186.296 362.403 186.056 361.923 185.768L359.475 191.048C360.403 191.592 361.379 192.024 362.403 192.344C363.427 192.664 364.611 192.824 365.955 192.824C367.043 192.824 368.003 192.696 368.835 192.44C369.667 192.184 370.403 191.768 371.043 191.192C371.715 190.616 372.323 189.864 372.867 188.936C373.411 188.04 373.923 186.936 374.403 185.624L384.291 159.272ZM433.607 185V151.4H426.311V172.088L410.567 151.4H403.751V185H411.047V163.64L427.319 185H433.607ZM467.257 158.12V151.4H441.673V185H449.065V171.992H465.097V165.272H449.065V158.12H467.257ZM498.613 158.216V151.4H470.773V158.216H480.997V185H488.389V158.216H498.613ZM522.394 177.176V177.08C522.394 175.896 522.154 174.888 521.674 174.056C521.194 173.224 520.586 172.52 519.85 171.944C519.114 171.368 518.282 170.888 517.354 170.504C516.426 170.088 515.514 169.736 514.618 169.448C513.914 169.224 513.242 169 512.602 168.776C511.994 168.552 511.45 168.328 510.97 168.104C510.49 167.848 510.106 167.592 509.818 167.336C509.53 167.048 509.386 166.728 509.386 166.376V166.28C509.386 165.768 509.61 165.352 510.058 165.032C510.506 164.68 511.178 164.504 512.074 164.504C513.002 164.504 514.074 164.728 515.29 165.176C516.506 165.592 517.754 166.168 519.034 166.904L521.818 161.864C520.41 160.936 518.858 160.216 517.162 159.704C515.498 159.16 513.85 158.888 512.218 158.888C510.906 158.888 509.674 159.064 508.522 159.416C507.402 159.768 506.41 160.296 505.546 161C504.714 161.704 504.042 162.568 503.53 163.592C503.05 164.584 502.81 165.736 502.81 167.048V167.144C502.81 168.392 503.034 169.448 503.482 170.312C503.962 171.176 504.57 171.912 505.306 172.52C506.042 173.096 506.858 173.576 507.754 173.96C508.682 174.312 509.594 174.616 510.49 174.872C511.194 175.096 511.866 175.304 512.506 175.496C513.146 175.688 513.706 175.896 514.186 176.12C514.698 176.312 515.098 176.552 515.386 176.84C515.674 177.128 515.818 177.464 515.818 177.848V177.944C515.818 178.52 515.562 178.984 515.05 179.336C514.57 179.688 513.802 179.864 512.746 179.864C511.53 179.864 510.218 179.608 508.81 179.096C507.434 178.584 506.042 177.816 504.634 176.792L501.514 181.592C503.242 182.936 505.05 183.928 506.938 184.568C508.858 185.176 510.73 185.48 512.554 185.48C513.93 185.48 515.21 185.32 516.394 185C517.61 184.648 518.666 184.136 519.562 183.464C520.458 182.792 521.146 181.944 521.626 180.92C522.138 179.864 522.394 178.616 522.394 177.176Z" fill="white"/>
<defs>
<linearGradient id="paint0_linear_14_983" x1="325.155" y1="5.23844e-06" x2="931.387" y2="394.026" gradientUnits="userSpaceOnUse">
<stop stop-color="#7B61FF"/>
<stop offset="0.9999" stop-color="#C91CC3"/>
<stop offset="1" stop-color="#C81CC5"/>
<stop offset="1" stop-color="#C81CC5"/>
</linearGradient>
<linearGradient id="paint1_linear_14_983" x1="325.155" y1="5.23844e-06" x2="931.387" y2="394.026" gradientUnits="userSpaceOnUse">
<stop stop-color="#7B61FF"/>
<stop offset="0.9999" stop-color="#C91CC3"/>
<stop offset="1" stop-color="#C81CC5"/>
<stop offset="1" stop-color="#C81CC5"/>
</linearGradient>
<linearGradient id="paint2_linear_14_983" x1="325.155" y1="5.23844e-06" x2="931.387" y2="394.026" gradientUnits="userSpaceOnUse">
<stop stop-color="#7B61FF"/>
<stop offset="0.9999" stop-color="#C91CC3"/>
<stop offset="1" stop-color="#C81CC5"/>
<stop offset="1" stop-color="#C81CC5"/>
</linearGradient>
</defs>
</svg>
